<?xml version="1.0" encoding="UTF-8"?>
<svg version="1.1" xmlns="http://www.w3.org/2000/svg" width="250" height="201">
<path d="M0 0 C82.5 0 165 0 250 0 C250 66.33 250 132.66 250 201 C167.5 201 85 201 0 201 C0 134.67 0 68.34 0 0 Z " fill="#F6F6F6" transform="translate(0,0)"/>
<path d="M0 0 C0.87269531 0.50660156 1.74539062 1.01320313 2.64453125 1.53515625 C22.18491285 13.82061508 35.8003249 33.08930994 41.59326172 55.27172852 C46.80119967 78.40547254 42.91868978 102.66011333 31 123 C17.7409978 143.60469482 -1.9181631 157.47375732 -25.59765625 163.30859375 C-48.33179534 167.92850491 -71.65752127 164.89731659 -91.625 152.8125 C-112.14148197 138.88080274 -126.99180368 119.5870531 -132.6796875 95.0703125 C-137.09963775 70.79085976 -132.36943655 46.96270199 -118.875 26.3125 C-104.99794271 7.36362482 -84.85215934 -7.23604015 -61.34765625 -11.27514648 C-39.26740254 -14.41081958 -19.26033938 -11.18287546 0 0 Z " fill="#BE3C3A" transform="translate(170,24)"/>
<path d="M0 0 C2.34890098 1.98328644 4.6773284 3.98613654 7 6 C8.49249268 7.28414795 8.49249268 7.28414795 10.01513672 8.59423828 C32.93661399 28.54484524 32.93661399 28.54484524 34.83984375 37.78125 C35.18950682 43.05113767 34.23184703 47.90158029 33 53 C32.75217898 54.49172886 32.51481961 55.98524168 32.2890625 57.48046875 C28.53868243 79.39489197 15.16374204 99.39358897 -2.5625 112.5625 C-15.87324934 121.42259631 -30.03892442 127.19935292 -46 129 C-47.20599854 129.17901855 -48.41199707 129.35803711 -49.65454102 129.54248047 C-54.75156176 129.49379738 -57.23262404 126.68743167 -60.70007324 123.23194885 C-61.48998657 122.40388229 -62.2798999 121.57581573 -63.09375 120.72265625 C-63.92588013 119.88157822 -64.75801025 119.04050018 -65.61535645 118.17393494 C-68.26288416 115.4883217 -70.88100879 112.77591905 -73.5 110.0625 C-75.29247474 108.23846761 -77.08672666 106.41617985 -78.8828125 104.59570312 C-82.14538604 101.27462198 -85.40384989 97.94994491 -88.63867188 94.60180664 C-89.28960815 93.92896133 -89.94054443 93.25611603 -90.61120605 92.56288147 C-92 91 -92 91 -92 90 C-90.8824659 89.99453156 -90.8824659 89.99453156 -89.74235535 89.98895264 C-82.72341323 89.9510961 -75.70494154 89.89427091 -68.68635082 89.81609726 C-65.07790995 89.77657635 -61.46971477 89.74441102 -57.86108398 89.72900391 C-54.37891485 89.71386693 -50.89742096 89.67947626 -47.41555214 89.63169098 C-45.4397519 89.60961835 -43.46376139 89.60752371 -41.48783875 89.60565186 C-40.28682022 89.58593323 -39.0858017 89.5662146 -37.84838867 89.54589844 C-36.25954109 89.53257477 -36.25954109 89.53257477 -34.63859558 89.51898193 C-31.89254033 89.23235264 -31.89254033 89.23235264 -30.15576172 87.16638184 C-28.50004604 84.06287674 -28.66252866 81.54774552 -28.70703125 78.046875 C-28.71339851 77.05654266 -28.71339851 77.05654266 -28.71989441 76.04620361 C-28.73662565 73.94704609 -28.77426449 71.84886504 -28.8125 69.75 C-28.82755416 68.32293058 -28.84124129 66.89584604 -28.85351562 65.46875 C-28.88650999 61.97885183 -28.93825257 58.4895213 -29 55 C-29.61875 55.99 -30.2375 56.98 -30.875 58 C-31.926875 59.485 -31.926875 59.485 -33 61 C-33.66 61 -34.32 61 -35 61 C-35.11730469 61.5878125 -35.23460937 62.175625 -35.35546875 62.78125 C-36.7699222 67.65039886 -40.00587811 70.86944825 -44.36328125 73.33984375 C-53.88953397 77.1260913 -63.94066723 76.35784188 -74 76 C-74 72 -74 72 -73 71 C-71.14712498 70.92773498 -69.29166122 70.9161878 -67.4375 70.9375 C-65.91962891 70.95103516 -65.91962891 70.95103516 -64.37109375 70.96484375 C-63.58863281 70.97644531 -62.80617188 70.98804688 -62 71 C-62.02320312 69.96359375 -62.04640625 68.9271875 -62.0703125 67.859375 C-62.08907667 66.48959056 -62.10727618 65.1197983 -62.125 63.75 C-62.14175781 63.06808594 -62.15851563 62.38617188 -62.17578125 61.68359375 C-62.21528576 57.61462923 -61.87550339 55.75100679 -60 52 C-68.58 52 -77.16 52 -86 52 C-86.33 50.68 -86.66 49.36 -87 48 C-86 47 -86 47 -83.04077148 46.88647461 C-81.74727783 46.89171143 -80.45378418 46.89694824 -79.12109375 46.90234375 C-78.09110008 46.90446617 -78.09110008 46.90446617 -77.04029846 46.90663147 C-74.83932199 46.91224521 -72.63844591 46.92479993 -70.4375 46.9375 C-68.94856917 46.94251324 -67.45963676 46.94707645 -65.97070312 46.95117188 C-62.31376925 46.96221907 -58.65689442 46.97949287 -55 47 C-54.690625 46.195625 -54.38125 45.39125 -54.0625 44.5625 C-53 42 -53 42 -52 41 C-63.22 40.67 -74.44 40.34 -86 40 C-86.495 38.515 -86.495 38.515 -87 37 C-86.67 36.34 -86.34 35.68 -86 35 C-84.83428467 34.99589111 -83.66856934 34.99178223 -82.4675293 34.98754883 C-78.14530123 34.96578824 -73.82398752 34.91153137 -69.50219727 34.84741211 C-67.63119262 34.8242051 -65.76005683 34.80983005 -63.88891602 34.80444336 C-61.19984972 34.79517318 -58.51285355 34.75422841 -55.82421875 34.70703125 C-54.98662521 34.7109639 -54.14903168 34.71489655 -53.28605652 34.71894836 C-50.64713977 34.70816383 -50.64713977 34.70816383 -47 34 C-46.01 32.35 -45.02 30.7 -44 29 C-57.86 29 -71.72 29 -86 29 C-86.33 27.68 -86.66 26.36 -87 25 C-86 24 -86 24 -84.09544373 23.87974548 C-83.26271439 23.88196609 -82.42998505 23.88418671 -81.57202148 23.88647461 C-80.63112167 23.88655014 -79.69022186 23.88662567 -78.72080994 23.88670349 C-77.69790359 23.89186478 -76.67499725 23.89702606 -75.62109375 23.90234375 C-74.57929459 23.9037587 -73.53749542 23.90517365 -72.46412659 23.90663147 C-69.12188906 23.9122492 -65.77971743 23.9248047 -62.4375 23.9375 C-60.17773534 23.94251272 -57.91796963 23.94707602 -55.65820312 23.95117188 C-50.10544609 23.96222439 -44.55272775 23.97897976 -39 24 C-38.70416016 23.22567627 -38.40832031 22.45135254 -38.10351562 21.65356445 C-36.90282137 18.76631979 -35.42405131 16.64555708 -33.5 14.1875 C-32.58734375 13.00220703 -32.58734375 13.00220703 -31.65625 11.79296875 C-31.1096875 11.20128906 -30.563125 10.60960938 -30 10 C-29.34 10 -28.68 10 -28 10 C-27.67 9.01 -27.34 8.02 -27 7 C-26.01 8.98 -26.01 8.98 -25 11 C-25.43755615 11.62865967 -25.8751123 12.25731934 -26.32592773 12.9050293 C-26.93895752 13.78586182 -27.5519873 14.66669434 -28.18359375 15.57421875 C-28.86035156 16.54649414 -29.53710938 17.51876953 -30.234375 18.52050781 C-31.70538099 20.63507892 -33.17543045 22.75031576 -34.64453125 24.86621094 C-40.91547183 33.89603062 -40.91547183 33.89603062 -44.06640625 38.31640625 C-44.48801025 38.91171143 -44.90961426 39.5070166 -45.34399414 40.12036133 C-46.4225769 41.64085551 -47.50790716 43.156557 -48.59375 44.671875 C-50.25851398 46.97467221 -50.25851398 46.97467221 -50 50 C-47.92087161 51.92893262 -47.92087161 51.92893262 -45.25 53.6875 C-44.36828125 54.31011719 -43.4865625 54.93273437 -42.578125 55.57421875 C-39.90762295 57.32263559 -39.90762295 57.32263559 -36 57 C-34.17251496 54.7822385 -32.6608203 52.66039252 -31.125 50.25 C-30.16281536 48.79467481 -29.19920067 47.34029438 -28.234375 45.88671875 C-27.71939453 45.10345215 -27.20441406 44.32018555 -26.67382812 43.51318359 C-23.65184602 38.97580264 -20.50804071 34.52356387 -17.375 30.0625 C-16.75898926 29.18045898 -16.14297852 28.29841797 -15.50830078 27.38964844 C-14.9357959 26.57141602 -14.36329102 25.75318359 -13.7734375 24.91015625 C-13.00652588 23.81392944 -13.00652588 23.81392944 -12.22412109 22.69555664 C-11 21 -11 21 -10 20 C-9.58265616 17.59784619 -9.58265616 17.59784619 -10 15 C-11.71747493 13.10862297 -11.71747493 13.10862297 -14 11.6875 C-14.7425 11.17574219 -15.485 10.66398437 -16.25 10.13671875 C-17.11625 9.57404297 -17.11625 9.57404297 -18 9 C-17.34 8.67 -16.68 8.34 -16 8 C-16 7.34 -16 6.68 -16 6 C-11.89041233 7.45044271 -8.56741255 9.51110752 -5 12 C-2.03162219 7.97832683 -0.47610659 4.99911924 0 0 Z " fill="#842D2A" transform="translate(180,60)"/>
<path d="M0 0 C1.12789444 -0.00615326 2.25578888 -0.01230652 3.41786194 -0.01864624 C5.2305381 0.00291031 5.2305381 0.00291031 7.07983398 0.02490234 C8.32844711 0.02581879 9.57706024 0.02673523 10.86351013 0.02767944 C13.50087331 0.03371726 16.13682978 0.04730475 18.77392578 0.07421875 C22.14887682 0.10823304 25.52322925 0.11584589 28.89833164 0.11432838 C32.12555805 0.11500377 35.35265955 0.13268394 38.57983398 0.14990234 C39.79030899 0.15212799 41.000784 0.15435364 42.24794006 0.15664673 C43.93505348 0.17578629 43.93505348 0.17578629 45.65625 0.1953125 C46.64488541 0.2029361 47.63352081 0.21055969 48.65211487 0.21841431 C51.35654757 0.49537628 52.99588706 1.0061661 55.26342773 2.48583984 C56.82231078 5.94892813 56.2308612 7.58337938 55.02172852 11.20483398 C52.40689005 16.40709374 49.54136323 21.37879156 43.78625488 23.32244873 C36.61305237 24.55883011 29.38101226 24.19044911 22.13842773 23.92333984 C19.91975087 23.89628676 17.70097999 23.87603906 15.48217773 23.86279297 C10.07234933 23.81576198 4.66971467 23.68412065 -0.73657227 23.48583984 C-0.73657227 24.47583984 -0.73657227 25.46583984 -0.73657227 26.48583984 C13.12342773 26.81583984 26.98342773 27.14583984 41.26342773 27.48583984 C39.26342773 32.48583984 39.26342773 32.48583984 38.26342773 33.48583984 C35.37908953 33.57449192 32.51880616 33.6010528 29.63452148 33.58349609 C28.33817528 33.58137367 28.33817528 33.58137367 27.01564026 33.57920837 C24.24403481 33.57359223 21.47250893 33.56103703 18.70092773 33.54833984 C16.82657994 33.54332692 14.95223088 33.53876366 13.07788086 33.53466797 C8.4730323 33.52361756 3.86824352 33.50634214 -0.73657227 33.48583984 C-0.73657227 34.80583984 -0.73657227 36.12583984 -0.73657227 37.48583984 C10.81342773 37.81583984 22.36342773 38.14583984 34.26342773 38.48583984 C32.94342773 40.79583984 31.62342773 43.10583984 30.26342773 45.48583984 C26.96362305 46.37231445 26.96362305 46.37231445 23.09155273 46.38818359 C22.06792633 46.40662071 22.06792633 46.40662071 21.02362061 46.4254303 C18.85245754 46.45712509 16.68469581 46.44090051 14.51342773 46.42333984 C13.0381358 46.43645139 11.56286813 46.45269256 10.08764648 46.47216797 C6.47914688 46.51298658 2.87213952 46.51085636 -0.73657227 46.48583984 C-0.73657227 47.47583984 -0.73657227 48.46583984 -0.73657227 49.48583984 C12.13342773 49.98083984 12.13342773 49.98083984 25.26342773 50.48583984 C24.93342773 51.80583984 24.60342773 53.12583984 24.26342773 54.48583984 C24.04054273 57.07240657 23.85028388 59.64536763 23.70092773 62.23583984 C23.63615234 63.28191406 23.63615234 63.28191406 23.57006836 64.34912109 C23.46453177 66.06115907 23.36352864 67.77347545 23.26342773 69.48583984 C17.81842773 69.98083984 17.81842773 69.98083984 12.26342773 70.48583984 C11.93342773 71.47583984 11.60342773 72.46583984 11.26342773 73.48583984 C29.30588318 74.75287669 29.30588318 74.75287669 45.28295898 67.76708984 C47.72464238 65.06808618 49.10617254 62.95760544 50.26342773 59.48583984 C51.55307949 58.1102113 52.89032066 56.77817591 54.26342773 55.48583984 C55.26582293 54.48824079 56.26628078 53.48868478 57.26342773 52.48583984 C57.36262884 56.80910018 57.43505039 61.13175008 57.4831543 65.45581055 C57.50321598 66.92532905 57.53047252 68.39476825 57.56518555 69.86401367 C57.61394915 71.98164472 57.63644934 74.09821671 57.65405273 76.21630859 C57.68547363 78.12512817 57.68547363 78.12512817 57.7175293 80.07250977 C57.1719548 84.17341141 56.17539901 85.592722 53.26342773 88.48583984 C50.53149414 89.1072998 50.53149414 89.1072998 47.36499023 89.10107422 C45.58294189 89.11503235 45.58294189 89.11503235 43.76489258 89.12927246 C42.48565918 89.1128772 41.20642578 89.09648193 39.88842773 89.07958984 C38.57181152 89.07963013 37.25519531 89.07967041 35.89868164 89.07971191 C33.11433534 89.07805998 30.33079548 89.05938808 27.54663086 89.02783203 C23.98205842 88.98815332 20.41854167 88.98378719 16.85379028 88.99129486 C13.44854133 88.99510676 10.04362447 88.97428089 6.63842773 88.95458984 C5.35919434 88.95438843 4.07996094 88.95418701 2.76196289 88.95397949 C1.57393066 88.93806763 0.38589844 88.92215576 -0.83813477 88.90576172 C-1.88308105 88.89734253 -2.92802734 88.88892334 -4.00463867 88.88024902 C-7.26410785 88.40967955 -8.59054834 88.00714306 -10.73657227 85.48583984 C-11.14474336 82.78228266 -11.2938769 80.47973484 -11.27001953 77.77319336 C-11.28294289 76.59711517 -11.28294289 76.59711517 -11.29612732 75.39727783 C-11.31884964 72.80276575 -11.31203701 70.2093284 -11.30297852 67.61474609 C-11.30821167 65.81257302 -11.31448701 64.01040269 -11.32176208 62.20823669 C-11.33217807 58.42946494 -11.32758824 54.65106946 -11.31298828 50.87231445 C-11.29580587 46.0285014 -11.31928217 41.18587512 -11.35447788 36.34219456 C-11.37643474 32.61980826 -11.37501449 28.89770661 -11.36671257 25.1752758 C-11.36589196 23.38948198 -11.37277627 21.60366748 -11.3874836 19.81793404 C-11.40489699 17.32050725 -11.39041583 14.82522131 -11.36767578 12.32788086 C-11.37936798 11.58956528 -11.39106018 10.85124969 -11.40310669 10.09056091 C-11.33570306 6.45398368 -10.99836312 4.7811037 -8.55566406 2.02607727 C-5.39740968 0.30053516 -3.57693333 -0.01030329 0 0 Z " fill="#F9F3D9" transform="translate(94.736572265625,61.51416015625)"/>
<path d="M0 0 C3.63425588 0.80868466 6.14425926 2.16134395 9.25 4.25 C10.14203125 4.83265625 11.0340625 5.4153125 11.953125 6.015625 C14 8 14 8 14.59765625 10.30859375 C13.74337691 14.15564254 11.57724626 16.78074429 9.1875 19.8125 C8.17614042 21.14022001 7.16709967 22.46970892 6.16015625 23.80078125 C5.63824707 24.48736816 5.11633789 25.17395508 4.57861328 25.88134766 C1.99294088 29.35157115 -0.44179216 32.92195125 -2.875 36.5 C-6.19345269 41.37635456 -9.55630959 46.21092516 -13 51 C-17.2829452 50.4520917 -19.85135641 48.97567196 -23.3125 46.4375 C-24.63701172 45.47650391 -24.63701172 45.47650391 -25.98828125 44.49609375 C-26.65214844 44.00238281 -27.31601563 43.50867188 -28 43 C-27.53750373 38.08828965 -25.04994157 34.9639312 -22.125 31.1875 C-21.12285011 29.8596928 -20.12292121 28.53020696 -19.125 27.19921875 C-18.609375 26.51263184 -18.09375 25.82604492 -17.5625 25.11865234 C-14.52820103 21.00433258 -11.66955778 16.76925953 -8.79345703 12.54370117 C-5.91724597 8.32114369 -2.98279812 4.14812068 0 0 Z " fill="#F9F4D9" transform="translate(157,67)"/>
<path d="M0 0 C0.83272934 0.00222061 1.66545868 0.00444122 2.52342224 0.00672913 C3.46432205 0.00680466 4.40522186 0.00688019 5.37463379 0.00695801 C6.39754013 0.01211929 7.42044647 0.01728058 8.47434998 0.02259827 C9.51614914 0.02401321 10.5579483 0.02542816 11.63131714 0.02688599 C14.97355467 0.03250372 18.31572629 0.04505922 21.65794373 0.05775452 C23.91770839 0.06276723 26.17747409 0.06733053 28.4372406 0.07142639 C33.98999763 0.08247891 39.54271597 0.09923428 45.09544373 0.12025452 C45.65794373 2.05775452 45.65794373 2.05775452 46.09544373 4.12025452 C45.09544373 5.12025452 45.09544373 5.12025452 43.19088745 5.24050903 C42.35815811 5.23828842 41.52542877 5.23606781 40.66746521 5.23377991 C39.7265654 5.23370438 38.78566559 5.23362885 37.81625366 5.23355103 C36.79334732 5.22838974 35.77044098 5.22322845 34.71653748 5.21791077 C33.67473831 5.21649582 32.63293915 5.21508087 31.55957031 5.21362305 C28.21733279 5.20800531 24.87516116 5.19544982 21.53294373 5.18275452 C19.27317906 5.1777418 17.01341336 5.1731785 14.75364685 5.16908264 C9.20088982 5.15803013 3.64817148 5.14127476 -1.90455627 5.12025452 C-2.46705627 3.18275452 -2.46705627 3.18275452 -2.90455627 1.12025452 C-1.90455627 0.12025452 -1.90455627 0.12025452 0 0 Z " fill="#832826" transform="translate(95.90455627441406,72.87974548339844)"/>
<path d="M0 0 C2.69990662 1.79993774 4.5418865 3.083773 6 6 C6.45270597 9.98381252 6.11064504 11.7939713 4.1875 15.375 C3.1046875 16.674375 3.1046875 16.674375 2 18 C-2.0744433 18 -4.11745033 15.90830751 -7.1875 13.5 C-7.74630859 13.07074219 -8.30511719 12.64148438 -8.88085938 12.19921875 C-10.25885847 11.13921945 -11.63009407 10.07043812 -13 9 C-10.65046008 2.56012467 -7.28097046 -1.21349508 0 0 Z " fill="#F9F3D9" transform="translate(174,54)"/>
<path d="M0 0 C3.89006773 1.38780795 6.96558708 3.2152227 10.3125 5.625 C11.19550781 6.25664063 12.07851562 6.88828125 12.98828125 7.5390625 C13.98408203 8.26222656 13.98408203 8.26222656 15 9 C12.3430749 14.82847984 7.58156854 16.28131155 1.8671875 18.44921875 C0 19 0 19 -3 19 C-3.08117951 16.58265458 -3.14056926 14.16805051 -3.1875 11.75 C-3.21263672 11.06808594 -3.23777344 10.38617188 -3.26367188 9.68359375 C-3.31137459 6.40800711 -3.21085076 4.34651444 -1.48828125 1.515625 C-0.99714844 1.01546875 -0.50601563 0.5153125 0 0 Z " fill="#F6F0D5" transform="translate(125,113)"/>
</svg>
